<svg width="36" height="51" viewBox="0 0 36 51" fill="none" xmlns="http://www.w3.org/2000/svg">
<g id="Component 1">
<path id="Vector" d="M36 17.8543C36.0011 14.7817 35.2023 11.7608 33.6807 9.08412C32.1591 6.40743 29.9663 4.16556 27.3147 2.57554C24.6631 0.985522 21.6423 0.101201 18.5449 0.00818205C15.4475 -0.0848369 12.3784 0.616597 9.63453 2.04458C6.8907 3.47257 4.56514 5.57875 2.88297 8.15923C1.2008 10.7397 0.218997 13.7071 0.0325977 16.7741C-0.153802 19.8412 0.461516 22.904 1.81899 25.6661C3.17646 28.4282 5.23011 30.796 7.78115 32.5404L2.84229e-06 45.9007L5.80115 46.1378L8.90743 51L17.82 35.6918C17.8817 35.6918 17.9383 35.702 18 35.702C18.0617 35.702 18.1183 35.6943 18.18 35.6918L27.0926 51L30.2606 46.2423L36 45.9007L28.2189 32.5404C30.6196 30.9014 32.5823 28.7082 33.9378 26.1497C35.2934 23.5913 36.0011 20.7443 36 17.8543ZM5.14286 17.8543C5.14286 15.3329 5.89692 12.8681 7.30968 10.7717C8.72244 8.67521 10.7305 7.04122 13.0798 6.07633C15.4291 5.11144 18.0143 4.85898 20.5083 5.35088C23.0023 5.84277 25.2933 7.05694 27.0914 8.83983C28.8895 10.6227 30.114 12.8943 30.6101 15.3672C31.1062 17.8401 30.8516 20.4034 29.8785 22.7329C28.9053 25.0623 27.2574 27.0533 25.143 28.4541C23.0287 29.8549 20.5429 30.6026 18 30.6026C14.5901 30.6026 11.3198 29.2595 8.90863 26.8687C6.49745 24.4779 5.14286 21.2353 5.14286 17.8543Z" fill="black"/>
<path id="Vector_2" d="M17.9999 25.5033C22.2604 25.5033 25.7142 22.0787 25.7142 17.8543C25.7142 13.6298 22.2604 10.2053 17.9999 10.2053C13.7394 10.2053 10.2856 13.6298 10.2856 17.8543C10.2856 22.0787 13.7394 25.5033 17.9999 25.5033Z" fill="black"/>
</g>
</svg>
