<svg width="37" height="39" viewBox="0 0 37 39" fill="none" xmlns="http://www.w3.org/2000/svg">
<g id="Group">
<path id="Vector" d="M18.4883 0.000888939C19.1168 0.000888939 19.7358 0.0423851 20.3115 0.140023C20.8786 0.215626 21.4381 0.341405 21.9836 0.51593C22.5306 0.684356 23.0656 0.894278 23.6006 1.1579C24.1211 1.40932 24.6561 1.71688 25.1911 2.05129C26.0955 2.63712 26.9855 3.11066 27.8924 3.48901C29.6776 4.21601 31.5653 4.64861 33.4845 4.77051C34.4584 4.8413 35.4588 4.8828 36.5 4.8828V14.6466C36.5 16.5017 36.2673 18.2592 35.8019 19.9337C35.3548 21.5843 34.7196 23.1761 33.9091 24.6765C33.102 26.1748 32.1471 27.5856 31.0591 28.8871C29.9544 30.2182 28.7583 31.4678 27.4797 32.6267C26.1843 33.7889 24.8199 34.869 23.3942 35.8609C21.9692 36.8666 20.5298 37.8015 19.0904 38.6509L18.5147 39L17.9389 38.6509C16.4592 37.7793 15.0139 36.8486 13.6063 35.8609C12.1726 34.8802 10.8075 33.7995 9.52079 32.6267C8.24305 31.4678 7.04774 30.2182 5.94387 28.8871C4.85879 27.5801 3.89958 26.1701 3.07946 24.6765C2.28283 23.1694 1.64822 21.5793 1.18665 19.9337C0.718289 18.2122 0.487375 16.4328 0.500532 14.6466V4.8828C1.5441 4.8828 2.54448 4.8413 3.51848 4.77051C4.47727 4.70275 5.42985 4.56324 6.3685 4.35311C7.28732 4.14319 8.20614 3.86492 9.11056 3.48901C10.0491 3.10362 10.9489 2.62706 11.7974 2.06594C12.853 1.36782 13.923 0.852782 14.9785 0.513489C16.1153 0.158896 17.2993 -0.014029 18.4883 0.000888939ZM34.0866 7.28225C32.2706 7.1926 30.4715 6.88369 28.7272 6.36201C26.9921 5.83539 25.3395 5.06036 23.8189 4.06019C23.0301 3.53343 22.1736 3.12024 21.2735 2.83239C20.3744 2.55592 19.4395 2.41931 18.5003 2.4272C17.5541 2.42097 16.6122 2.55752 15.7054 2.83239C14.804 3.11089 13.9486 3.52471 13.1673 4.06019C11.644 5.06581 9.9871 5.84424 8.24692 6.37178C6.54602 6.87461 4.76596 7.18217 2.89954 7.29446V14.6588C2.89954 16.2772 3.10585 17.8247 3.51848 19.3162C3.93885 20.7946 4.51811 22.2214 5.24576 23.5707C5.98214 24.9341 6.85006 26.2195 7.83669 27.4079C8.83707 28.6064 9.90463 29.7219 11.0562 30.7813C12.2077 31.8431 13.4144 32.8195 14.6763 33.7251C15.9501 34.6331 17.2264 35.4557 18.5003 36.2076C19.8046 35.4349 21.0764 34.6067 22.3123 33.7251C23.5825 32.8224 24.7956 31.8391 25.9444 30.7813C27.0959 29.7219 28.1659 28.6064 29.1662 27.4079C30.153 26.2196 31.0209 24.9342 31.7572 23.5707C32.4816 22.2231 33.0523 20.7957 33.4581 19.3162C33.8832 17.8018 34.0949 16.2337 34.0866 14.6588V7.28225Z" fill="black"/>
<path id="Vector_2" fill-rule="evenodd" clip-rule="evenodd" d="M27.4317 11.4953L26.3761 10.5727L25.4021 10.6581L14.9424 23.2241L11.3799 18.0493L10.4203 17.8833L9.30957 18.6913L9.14404 19.6677L13.7237 26.3217L14.2443 26.6146L15.3407 26.6829L15.902 26.434L27.5012 12.4839L27.4317 11.4953Z" fill="black"/>
</g>
</svg>
