<svg width="32" height="31" viewBox="0 0 32 31" fill="none" xmlns="http://www.w3.org/2000/svg">
<g id="Vector">
<path id="Vector_2" d="M22.8702 19.4969H21.4248L20.9125 19.0183C22.7675 16.9339 23.787 14.2729 23.785 11.5209C23.785 9.24226 23.0875 7.01482 21.7808 5.12022C20.474 3.22562 18.6166 1.74897 16.4436 0.876979C14.2705 0.00499181 11.8793 -0.22316 9.5724 0.221375C7.26548 0.665911 5.14644 1.76317 3.48324 3.37439C1.82004 4.98561 0.687392 7.03843 0.228517 9.27326C-0.230358 11.5081 0.00515284 13.8246 0.905269 15.9297C1.80538 18.0349 3.32968 19.8342 5.28539 21.1001C7.2411 22.3661 9.5404 23.0417 11.8925 23.0417C14.8382 23.0417 17.546 21.996 19.6318 20.259L20.1258 20.7553V22.1555L29.2739 31L32 28.3591L22.8702 19.4969ZM11.8925 19.4969C7.33677 19.4969 3.65924 15.9342 3.65924 11.5209C3.65924 7.10749 7.33677 3.54489 11.8925 3.54489C16.4483 3.54489 20.1258 7.10749 20.1258 11.5209C20.1258 15.9342 16.4483 19.4969 11.8925 19.4969Z" fill="black" fill-opacity="0.5"/>
</g>
</svg>
