<svg width="40" height="40" viewBox="0 0 40 40" fill="none" xmlns="http://www.w3.org/2000/svg">
<g id="Vector">
<path id="Vector_2" d="M20 40C25.3043 40 30.3914 37.8929 34.1421 34.1421C37.8929 30.3914 40 25.3043 40 20C40 14.6957 37.8929 9.60859 34.1421 5.85786C30.3914 2.10714 25.3043 0 20 0C14.6957 0 9.60859 2.10714 5.85786 5.85786C2.10714 9.60859 0 14.6957 0 20C0 25.3043 2.10714 30.3914 5.85786 34.1421C9.60859 37.8929 14.6957 40 20 40ZM28.4333 17.6L19.2667 26.7667C18.7979 27.2348 18.1625 27.4978 17.5 27.4978C16.8375 27.4978 16.2021 27.2348 15.7333 26.7667L12.4 23.4333C11.9584 22.9594 11.718 22.3326 11.7294 21.6849C11.7408 21.0373 12.0032 20.4193 12.4613 19.9613C12.9193 19.5032 13.5373 19.2408 14.1849 19.2294C14.8326 19.218 15.4594 19.4584 15.9333 19.9L17.5 21.4667L24.9 14.0667C25.3739 13.6251 26.0007 13.3847 26.6484 13.3961C27.2961 13.4075 27.914 13.6699 28.3721 14.1279C28.8301 14.586 29.0925 15.2039 29.1039 15.8516C29.1153 16.4993 28.8749 17.1261 28.4333 17.6Z" fill="black"/>
</g>
</svg>
