<svg width="13" height="23" viewBox="0 0 13 23" fill="none" xmlns="http://www.w3.org/2000/svg">
<g id="Vector">
<path id="Vector_2" d="M0.76712 0.270657C0.595872 0.447604 0.5 0.68514 0.5 0.932489C0.5 1.17984 0.595872 1.41737 0.76712 1.59432L10.3345 11.5L0.76712 21.4037C0.595872 21.5806 0.5 21.8182 0.5 22.0655C0.5 22.3129 0.595872 22.5504 0.76712 22.7274C0.850358 22.8136 0.94988 22.8822 1.05981 22.9291C1.16974 22.9759 1.28785 23 1.40717 23C1.52649 23 1.6446 22.9759 1.75453 22.9291C1.86446 22.8822 1.96399 22.8136 2.04722 22.7274L12.2213 12.1916C12.4 12.0065 12.5 11.7584 12.5 11.5C12.5 11.2416 12.4 10.9935 12.2213 10.8084L2.04722 0.272639C1.96399 0.186357 1.86446 0.117778 1.75453 0.0709516C1.6446 0.0241252 1.52649 0 1.40717 0C1.28785 0 1.16974 0.0241252 1.05981 0.0709516C0.94988 0.117778 0.850358 0.186357 0.76712 0.272639V0.270657Z" fill="black"/>
</g>
</svg>
